<svg id="Layer_1" data-name="Layer 1" xmlns="http://www.w3.org/2000/svg" width="200" height="200" viewBox="0 0 200 200"><defs><style>.cls-1{fill:#ff4b00;}.cls-2{fill:#fff;}.cls-3{fill:none;}</style></defs><title>talabatlogo-freelogovectors.net_</title><path class="cls-1" d="M46.81,8.82a62,62,0,0,1,6.39-.35h84.69c5.09.07,10.19-.22,15.26.34a44.66,44.66,0,0,1,18.7,7.11,43.88,43.88,0,0,1,18.66,28.22c1,4.17.83,8.49.82,12.74v85.84a85.55,85.55,0,0,1-.21,8.92,43.94,43.94,0,0,1-44,39.9H51.68a44,44,0,0,1-38.27-24.17,44.76,44.76,0,0,1-4.75-19.64q0-47.55,0-95.11a45.3,45.3,0,0,1,3.19-16.54A44.07,44.07,0,0,1,35.08,12.14,44.68,44.68,0,0,1,46.81,8.82m60.51,35.32a35.59,35.59,0,0,0-8.78,1.19,20.81,20.81,0,0,0-8.13,4.31A16,16,0,0,0,84.66,61.9c0,5,0,9.93,0,14.9-6.58.25-13.16.38-19.74.73,0,2.66,0,5.32,0,8a10.38,10.38,0,0,0,9.88,9.94c3.28,0,6.57,0,9.85,0,0,7.13,0,14.25,0,21.37.06,4.39-.19,8.8.39,13.17a30.28,30.28,0,0,0,12,20.31A30,30,0,0,0,111.36,156a30.3,30.3,0,0,0,19.84-4.37c0-6.06,0-12.12,0-18.17-3.6,1.13-7.7,1.39-11.14-.38-2.86-1.52-4.68-4.33-6.15-7.1-1.44-3-1-6.38-1.06-9.6,0-7-.06-14,0-21q11.1,0,22.19,0c-.12-1.92-.43-3.83-.64-5.75-.48-2.77-.22-5.78-1.66-8.3a10.4,10.4,0,0,0-9.19-5.4c-3.58,0-7.16,0-10.74,0,0-10.73,0-21.47,0-32.2-1.85-.08-3.68.27-5.52.35Z" transform="translate(0 0)"/><path class="cls-2" d="M107.32,44.14c1.84-.08,3.67-.43,5.52-.35,0,10.73,0,21.47,0,32.2,3.58,0,7.16,0,10.74,0a10.4,10.4,0,0,1,9.19,5.4c1.44,2.52,1.18,5.53,1.66,8.3.21,1.92.52,3.83.64,5.75q-11.1,0-22.19,0c-.1,7,0,14,0,21,.06,3.22-.38,6.6,1.06,9.6,1.47,2.77,3.29,5.58,6.15,7.1,3.44,1.77,7.54,1.51,11.14.38,0,6,0,12.11,0,18.17A30.3,30.3,0,0,1,111.36,156a30,30,0,0,1-14.29-5.72A30.28,30.28,0,0,1,85.1,130c-.58-4.37-.33-8.78-.39-13.17,0-7.12,0-14.24,0-21.37-3.28,0-6.57,0-9.85,0A10.38,10.38,0,0,1,65,85.51c0-2.66,0-5.32,0-8,6.58-.35,13.16-.48,19.74-.73,0-5,0-9.93,0-14.9a16,16,0,0,1,5.75-12.26,20.81,20.81,0,0,1,8.13-4.31,35.59,35.59,0,0,1,8.78-1.19Z" transform="translate(0 0)"/><rect class="cls-3" width="200" height="200"/></svg>